<svg xmlns="http://www.w3.org/2000/svg" viewBox="0 0 1920 400" width="1920" height="400" preserveAspectRatio="xMidYMax slice">
  <defs>
    <linearGradient id="pf" x1="0%" y1="100%" x2="0%" y2="0%">
      <stop offset="0%" stop-color="#1a2e1a" stop-opacity="0.5"/>
      <stop offset="40%" stop-color="#1a2e1a" stop-opacity="0.2"/>
      <stop offset="100%" stop-color="#020204" stop-opacity="0"/>
    </linearGradient>
    <linearGradient id="pl" x1="0%" y1="0%" x2="100%" y2="0%">
      <stop offset="0%" stop-color="#fff" stop-opacity="0"/>
      <stop offset="20%" stop-color="#fff" stop-opacity="0.06"/>
      <stop offset="50%" stop-color="#fff" stop-opacity="0.1"/>
      <stop offset="80%" stop-color="#fff" stop-opacity="0.06"/>
      <stop offset="100%" stop-color="#fff" stop-opacity="0"/>
    </linearGradient>
  </defs>
  <rect x="0" y="0" width="1920" height="400" fill="url(#pf)"/>
  <line x1="960" y1="400" x2="200" y2="0" stroke="url(#pl)" stroke-width="2"/>
  <line x1="960" y1="400" x2="400" y2="0" stroke="url(#pl)" stroke-width="2"/>
  <line x1="960" y1="400" x2="600" y2="0" stroke="url(#pl)" stroke-width="2"/>
  <line x1="960" y1="400" x2="800" y2="0" stroke="url(#pl)" stroke-width="2"/>
  <line x1="960" y1="400" x2="960" y2="0" stroke="url(#pl)" stroke-width="3"/>
  <line x1="960" y1="400" x2="1120" y2="0" stroke="url(#pl)" stroke-width="2"/>
  <line x1="960" y1="400" x2="1320" y2="0" stroke="url(#pl)" stroke-width="2"/>
  <line x1="960" y1="400" x2="1520" y2="0" stroke="url(#pl)" stroke-width="2"/>
  <line x1="960" y1="400" x2="1720" y2="0" stroke="url(#pl)" stroke-width="2"/>
  <line x1="0" y1="350" x2="1920" y2="350" stroke="#fff" stroke-width="1" opacity="0.05"/>
  <line x1="0" y1="300" x2="1920" y2="300" stroke="#fff" stroke-width="1" opacity="0.07"/>
  <line x1="0" y1="250" x2="1920" y2="250" stroke="#fff" stroke-width="1" opacity="0.09"/>
  <line x1="0" y1="200" x2="1920" y2="200" stroke="#fff" stroke-width="1" opacity="0.05"/>
  <ellipse cx="960" cy="380" rx="300" ry="15" fill="none" stroke="#fff" stroke-width="1.5" opacity="0.06"/>
</svg>