<svg xmlns="http://www.w3.org/2000/svg" viewBox="0 0 1920 1080" width="1920" height="1080" preserveAspectRatio="xMidYMid slice">
  <defs>
    <linearGradient id="rl" x1="0%" y1="0%" x2="100%" y2="100%">
      <stop offset="0%" stop-color="#7dd3fc" stop-opacity="0.08"/>
      <stop offset="30%" stop-color="#7dd3fc" stop-opacity="0.04"/>
      <stop offset="100%" stop-color="#020204" stop-opacity="0"/>
    </linearGradient>
    <linearGradient id="rr" x1="100%" y1="0%" x2="0%" y2="100%">
      <stop offset="0%" stop-color="#7dd3fc" stop-opacity="0.08"/>
      <stop offset="30%" stop-color="#7dd3fc" stop-opacity="0.04"/>
      <stop offset="100%" stop-color="#020204" stop-opacity="0"/>
    </linearGradient>
    <linearGradient id="rc" x1="50%" y1="0%" x2="50%" y2="100%">
      <stop offset="0%" stop-color="#D4A853" stop-opacity="0.05"/>
      <stop offset="50%" stop-color="#D4A853" stop-opacity="0.02"/>
      <stop offset="100%" stop-color="#020204" stop-opacity="0"/>
    </linearGradient>
    <radialGradient id="fl" cx="50%" cy="50%" r="50%">
      <stop offset="0%" stop-color="#fff" stop-opacity="0.9"/>
      <stop offset="30%" stop-color="#7dd3fc" stop-opacity="0.5"/>
      <stop offset="100%" stop-color="#020204" stop-opacity="0"/>
    </radialGradient>
  </defs>
  <circle cx="120" cy="80" r="60" fill="url(#fl)"/>
  <circle cx="160" cy="100" r="50" fill="url(#fl)" opacity="0.8"/>
  <circle cx="100" cy="120" r="55" fill="url(#fl)" opacity="0.7"/>
  <circle cx="1800" cy="80" r="60" fill="url(#fl)"/>
  <circle cx="1760" cy="100" r="50" fill="url(#fl)" opacity="0.8"/>
  <circle cx="1820" cy="120" r="55" fill="url(#fl)" opacity="0.7"/>
  <polygon points="-100,-100 400,-100 960,1080 200,1080" fill="url(#rl)"/>
  <polygon points="2020,-100 1520,-100 960,1080 1720,1080" fill="url(#rr)"/>
  <polygon points="700,-100 1220,-100 1080,1080 840,1080" fill="url(#rc)"/>
  <polygon points="200,-100 500,-100 700,1080 300,1080" fill="url(#rl)" opacity="0.5"/>
  <polygon points="1720,-100 1420,-100 1220,1080 1620,1080" fill="url(#rr)" opacity="0.5"/>
</svg>